<svg id="Capa_1" data-name="Capa 1" xmlns="http://www.w3.org/2000/svg" viewBox="0 0 170 60"><defs><style>.cls-1{fill:#29304a;}.cls-2{fill:#5d78ff;}</style></defs><path class="cls-1" d="M12.89,37.53c1.57.75,3.42,1.25,3-1.7-.52-3.45-.42-6.57-2.2-8.73a6.89,6.89,0,0,0-3-2.42s-.07,0-.09-.07c-.28-.34-1.84-2.34-1.31-2.8.23-.2,1.56,1,2,1.51s-.29-1-.29-1a3.2,3.2,0,0,0-1.83-1.83,13.72,13.72,0,0,1-1.5-.69s-.64,2.9.87,4.34a4.52,4.52,0,0,0,1,.78l-1.12.59A3.51,3.51,0,0,0,6.67,24c-1.08-.42-2.86-.54-3.32-.82s0,3.53,2.59,3.5c1.17.12,1.45.29,1.82.3.14,0,.28.14.21.26-.79,1.59-.24,2.85.6,4.63C9.94,34.76,11.81,37,12.89,37.53Zm-.84-9.12.13.17a.7.7,0,0,1,.71.37.64.64,0,0,1-.24.76c-.06.05,0,.56,0,.56L12,29.34C11.79,29.07,12,28.49,12.05,28.41Z"/><path class="cls-2" d="M20.14,34.69c1.25-1.82,2.21-5.84,3.07-9.38,1.07-4.47,1.79-7.24,2.88-7.7a7.29,7.29,0,0,1,1.57-.48,18,18,0,0,0-5.78-1.6h0a2.35,2.35,0,0,0-2.36,1.52A31,31,0,0,0,17,32.76c.19,1.71.77,3,1.43,3.14C18.92,36,19.52,35.59,20.14,34.69Z"/><path class="cls-2" d="M22.41,33a.22.22,0,0,0,.37.2c3.39-3.65,9.31-10,9.86-10.24a2,2,0,0,1,1.43.12c-3.63-4.56-4.74-4.74-5.22-4.82l-.12,0a2.09,2.09,0,0,0-.49,0,2.26,2.26,0,0,0-1.91,1.22C26,20,23.93,27.27,22.41,33Z"/><path class="cls-2" d="M32.71,24.39c-.11.13-.24.26-.37.4-.64.63-6.27,6.67-9.06,9.67a.22.22,0,0,0,.22.36c1.09-.36,2.48-.83,3.94-1.35,1-.36,2.18-.82,3.31-1.26,3.61-1.42,5-1.93,5.54-1.63.25.14.58.7.72.63s-1.88-4.3-3.25-7c-.25-.33-.37-.36-.4-.36h0C33.23,23.84,32.94,24.15,32.71,24.39Z"/><path class="cls-2" d="M33.84,37.91h0c.3,0,.64.25,1,.73,0,0,.71-7.13.53-7s-.86.38-1.4.58c-2.7,1-10.55,3.56-13.1,4.38l.12.07a24.17,24.17,0,0,0,3,.8l.35.06A88.94,88.94,0,0,0,33.84,37.91Z"/><path class="cls-2" d="M17.43,36.34a54.48,54.48,0,0,0,4.93,7.83.18.18,0,0,0,.21,0c.42-.16.95-.33,1.54-.52a24.25,24.25,0,0,0,3.34-1.27l-1.16-.54c-1.72-.76-7.3-4.7-8.7-5.68A.11.11,0,0,0,17.43,36.34Z"/><path class="cls-2" d="M20.87,44.18l-3.54-6.32a.2.2,0,0,0-.37.08,9.7,9.7,0,0,0,.87,5.5c.47.79,1.85,1,2.86,1A.2.2,0,0,0,20.87,44.18Z"/><path class="cls-1" d="M10.08,37.33c.23,1.22,2.54,4.31,6.13,5.29a.25.25,0,0,0,.3-.32,9.74,9.74,0,0,1-.43-2.2.18.18,0,0,0-.16-.17,11.91,11.91,0,0,1-5.6-2.79C10.27,37.09,10,36.67,10.08,37.33Z"/><path class="cls-2" d="M13.1,22.8l.65,1.6c.47,1.17.59,1.92,1.27,2.52a.43.43,0,0,0,.74-.23c.3-1.05.64-2.67.88-3.79.27-1.32.54-2.57.74-3.19l.09-.28a18.33,18.33,0,0,1,1.33-3.35.21.21,0,0,0-.17-.33,15.54,15.54,0,0,0-9.58,3.32.22.22,0,0,0,0,.35C10,20,12.24,20.73,13.1,22.8Z"/><path class="cls-2" d="M32,38.84a41.63,41.63,0,0,1-7.4-.65,33.45,33.45,0,0,1-3.8-.88c-.56-.18-.89-.38-.8-.27a7.5,7.5,0,0,0,.68.6c2.53,2.2,7.34,4,8.73,4.52a.2.2,0,0,0,.23-.07l2.53-2.9A.21.21,0,0,0,32,38.84Z"/><path class="cls-1" d="M42.23,36.42a.6.6,0,0,1-.6-.6V28.6c0-.44,0-.9,0-1.36s-.07-.93-.12-1.39H44a.6.6,0,0,1,.59.53l.17,1.43h-.25a3.59,3.59,0,0,1,1.35-1.58A3.82,3.82,0,0,1,48,25.64a3.5,3.5,0,0,1,2,.58A3.09,3.09,0,0,1,51.15,28h-.33a3.71,3.71,0,0,1,1.46-1.72,4.18,4.18,0,0,1,2.27-.64,3.28,3.28,0,0,1,2.67,1.07A5.22,5.22,0,0,1,58.09,30v5.78a.59.59,0,0,1-.59.6h-2a.59.59,0,0,1-.59-.6V30.14a2.69,2.69,0,0,0-.36-1.58,1.32,1.32,0,0,0-1.14-.48,1.78,1.78,0,0,0-1.48.67,2.81,2.81,0,0,0-.55,1.83v5.24a.59.59,0,0,1-.59.6h-2a.59.59,0,0,1-.59-.6V30.14a2.69,2.69,0,0,0-.36-1.58,1.31,1.31,0,0,0-1.14-.48,1.75,1.75,0,0,0-1.47.67,2.87,2.87,0,0,0-.53,1.83v5.24a.6.6,0,0,1-.59.6Z"/><path class="cls-1" d="M64.45,36.65a3.71,3.71,0,0,1-2.94-1.1,4.93,4.93,0,0,1-1-3.32V26.45a.6.6,0,0,1,.59-.6h2a.6.6,0,0,1,.6.6v5.78a2.26,2.26,0,0,0,.4,1.48,1.56,1.56,0,0,0,1.26.48,2,2,0,0,0,1.56-.66,2.46,2.46,0,0,0,.61-1.76V26.45a.6.6,0,0,1,.59-.6h2a.6.6,0,0,1,.6.6v9.37a.6.6,0,0,1-.6.6H68.21a.6.6,0,0,1-.6-.6V34.4h.3a3.8,3.8,0,0,1-1.38,1.65A3.65,3.65,0,0,1,64.45,36.65Z"/><path class="cls-1" d="M73.26,35.82V21.67a.6.6,0,0,1,.59-.59h2a.6.6,0,0,1,.6.59V35.82a.6.6,0,0,1-.6.6h-2A.6.6,0,0,1,73.26,35.82Z"/><path class="cls-1" d="M78.84,23.53V21.78a.59.59,0,0,1,.6-.59h2.19a.59.59,0,0,1,.59.59v1.75a.59.59,0,0,1-.59.59H79.44A.59.59,0,0,1,78.84,23.53ZM79,35.82V26.45a.59.59,0,0,1,.59-.6h2a.59.59,0,0,1,.59.6v9.37a.59.59,0,0,1-.59.6h-2A.59.59,0,0,1,79,35.82Z"/><path class="cls-1" d="M89.61,36.65a4.22,4.22,0,0,1-3.1-1,4.16,4.16,0,0,1-1-3.09V28.8a.59.59,0,0,0-.59-.59h-.82a.59.59,0,0,1-.59-.6V26.45a.59.59,0,0,1,.59-.6h.82a.59.59,0,0,0,.59-.59V23.73a.59.59,0,0,1,.45-.57l2-.48a.59.59,0,0,1,.73.57v2a.59.59,0,0,0,.6.59h1.52a.59.59,0,0,1,.59.6v1.16a.59.59,0,0,1-.59.6H89.21a.59.59,0,0,0-.6.59v3.55A1.81,1.81,0,0,0,89,33.73a1.52,1.52,0,0,0,1.06.37,3.05,3.05,0,0,0,.66-.05,3.25,3.25,0,0,0,.55-.15v2.43a3.78,3.78,0,0,1-.83.24A5.1,5.1,0,0,1,89.61,36.65Z"/><path class="cls-1" d="M97,36.65A4.41,4.41,0,0,1,94.62,36,4.47,4.47,0,0,1,93,34.08a6.82,6.82,0,0,1-.58-3A6.78,6.78,0,0,1,93,28.19a4.28,4.28,0,0,1,4-2.55,4.28,4.28,0,0,1,2.28.62,2.85,2.85,0,0,1,1.33,1.66h-.23l.18-1.55a.6.6,0,0,1,.59-.52h2.5l-.12,1.39c0,.46,0,.92,0,1.36v7.22a.59.59,0,0,1-.59.6h-2a.6.6,0,0,1-.59-.59V34.44h.25A3,3,0,0,1,99.28,36,4.26,4.26,0,0,1,97,36.65Zm1-2.38a2.21,2.21,0,0,0,1.75-.77,3.54,3.54,0,0,0,.67-2.38,3.44,3.44,0,0,0-.67-2.35,2.42,2.42,0,0,0-3.5,0,3.49,3.49,0,0,0-.67,2.35,3.6,3.6,0,0,0,.66,2.38A2.2,2.2,0,0,0,98,34.27Z"/><path class="cls-2" d="M110,36.65a9.91,9.91,0,0,1-2.58-.32,6.51,6.51,0,0,1-1.56-.61.58.58,0,0,1-.24-.72l.38-1a.6.6,0,0,1,.81-.34,7.24,7.24,0,0,0,3.21.78,2.57,2.57,0,0,0,1.36-.29.91.91,0,0,0,.43-.8.77.77,0,0,0-.28-.64,1.88,1.88,0,0,0-.86-.34L108.51,32a3.81,3.81,0,0,1-2.06-1,2.63,2.63,0,0,1-.71-1.9,3,3,0,0,1,.55-1.8,3.59,3.59,0,0,1,1.6-1.22,6.24,6.24,0,0,1,2.43-.44,8.16,8.16,0,0,1,2.25.3,4.76,4.76,0,0,1,1.43.62.56.56,0,0,1,.2.71l-.39.94a.59.59,0,0,1-.82.29,6.34,6.34,0,0,0-.95-.42,5,5,0,0,0-1.61-.29,2.51,2.51,0,0,0-1.44.32,1,1,0,0,0-.44.83.84.84,0,0,0,.26.62,1.75,1.75,0,0,0,.81.38l2.16.39a4.13,4.13,0,0,1,2.13.94,2.51,2.51,0,0,1,.73,1.9,3,3,0,0,1-.59,1.87,3.61,3.61,0,0,1-1.63,1.19A6.51,6.51,0,0,1,110,36.65Z"/><path class="cls-2" d="M121.43,36.65a4.22,4.22,0,0,1-3.1-1,4.13,4.13,0,0,1-1-3.09V28.8a.58.58,0,0,0-.59-.59h-.81a.6.6,0,0,1-.6-.6V26.45a.6.6,0,0,1,.6-.6h.81a.58.58,0,0,0,.59-.59V23.73a.59.59,0,0,1,.46-.57l2-.48a.59.59,0,0,1,.73.57v2a.59.59,0,0,0,.59.59h1.53a.6.6,0,0,1,.59.6v1.16a.6.6,0,0,1-.59.6H121a.59.59,0,0,0-.59.59v3.55a1.81,1.81,0,0,0,.42,1.38,1.51,1.51,0,0,0,1.06.37,3.16,3.16,0,0,0,.66-.05,3.53,3.53,0,0,0,.55-.15v2.43a4,4,0,0,1-.83.24A5.19,5.19,0,0,1,121.43,36.65Z"/><path class="cls-2" d="M128.58,36.65a3.71,3.71,0,0,1-2.94-1.1,4.93,4.93,0,0,1-1-3.32V26.45a.6.6,0,0,1,.59-.6h2a.6.6,0,0,1,.6.6v5.78a2.26,2.26,0,0,0,.4,1.48,1.56,1.56,0,0,0,1.26.48,2,2,0,0,0,1.55-.66,2.47,2.47,0,0,0,.62-1.76V26.45a.59.59,0,0,1,.59-.6h2a.6.6,0,0,1,.6.6v9.37a.6.6,0,0,1-.6.6h-1.87a.6.6,0,0,1-.6-.6V34.4H132a3.72,3.72,0,0,1-1.37,1.65A3.65,3.65,0,0,1,128.58,36.65Z"/><path class="cls-2" d="M141.54,36.65a4.48,4.48,0,0,1-2.43-.67,4.58,4.58,0,0,1-1.65-1.9,6.82,6.82,0,0,1-.59-3,6.78,6.78,0,0,1,.58-2.93,4.36,4.36,0,0,1,1.65-1.89,4.53,4.53,0,0,1,2.44-.66,4.24,4.24,0,0,1,2.24.6,2.85,2.85,0,0,1,1.32,1.59h-.27V21.67a.59.59,0,0,1,.59-.59h2a.59.59,0,0,1,.59.59V35.82a.59.59,0,0,1-.59.6h-1.92a.6.6,0,0,1-.59-.6V34.35h.27A3,3,0,0,1,143.81,36,4.19,4.19,0,0,1,141.54,36.65Zm.93-2.38a2.2,2.2,0,0,0,1.75-.77,3.54,3.54,0,0,0,.67-2.38,3.44,3.44,0,0,0-.67-2.35,2.21,2.21,0,0,0-1.75-.75,2.26,2.26,0,0,0-1.76.75,3.44,3.44,0,0,0-.67,2.35,3.54,3.54,0,0,0,.67,2.38A2.25,2.25,0,0,0,142.47,34.27Z"/><path class="cls-2" d="M150.43,23.53V21.78a.59.59,0,0,1,.6-.59h2.18a.59.59,0,0,1,.6.59v1.75a.59.59,0,0,1-.6.59H151A.59.59,0,0,1,150.43,23.53Zm.13,12.29V26.45a.59.59,0,0,1,.59-.6h2a.59.59,0,0,1,.59.6v9.37a.59.59,0,0,1-.59.6h-2A.59.59,0,0,1,150.56,35.82Z"/><path class="cls-2" d="M161.27,36.65a6,6,0,0,1-2.93-.68,4.71,4.71,0,0,1-1.92-1.91,6,6,0,0,1-.68-2.94,6,6,0,0,1,.68-2.91,4.69,4.69,0,0,1,1.92-1.9,6.74,6.74,0,0,1,5.86,0,4.65,4.65,0,0,1,1.93,1.9,6,6,0,0,1,.68,2.91,6,6,0,0,1-.68,2.94A4.67,4.67,0,0,1,164.2,36,6.07,6.07,0,0,1,161.27,36.65Zm0-2.38A2.14,2.14,0,0,0,163,33.5a3.72,3.72,0,0,0,.63-2.38,3.61,3.61,0,0,0-.63-2.35,2.15,2.15,0,0,0-1.72-.75,2.12,2.12,0,0,0-1.72.75,3.55,3.55,0,0,0-.64,2.35,3.66,3.66,0,0,0,.64,2.38A2.11,2.11,0,0,0,161.27,34.27Z"/></svg>