<svg id="Capa_1" data-name="Capa 1" xmlns="http://www.w3.org/2000/svg" viewBox="0 0 40 40"><defs><style>.cls-1{fill:#29304a;}.cls-2{fill:#5d78ff;}</style></defs><path class="cls-1" d="M12.58,27.74c1.61.77,3.51,1.29,3.06-1.75-.53-3.55-.43-6.75-2.25-9a7.13,7.13,0,0,0-3.12-2.49.17.17,0,0,1-.1-.07c-.28-.35-1.88-2.4-1.33-2.88.23-.2,1.59,1,2,1.56s-.29-1.06-.29-1.06a3.34,3.34,0,0,0-1.88-1.89,13.92,13.92,0,0,1-1.54-.7S6.48,12.47,8,14a4.35,4.35,0,0,0,1,.8l-1.14.6a3.68,3.68,0,0,0-1.7-1.53c-1.1-.42-2.94-.55-3.41-.84s0,3.63,2.66,3.6c1.2.12,1.49.3,1.87.31.15,0,.28.14.22.27-.81,1.63-.25,2.92.62,4.75C9.56,24.89,11.48,27.21,12.58,27.74Zm-.86-9.38.13.18a.74.74,0,0,1,.74.38.67.67,0,0,1-.26.79c-.06,0,0,.56,0,.56l-.7-.95C11.45,19,11.7,18.45,11.72,18.36Z"/><path class="cls-2" d="M20,24.81c1.28-1.86,2.27-6,3.15-9.63,1.11-4.59,1.84-7.43,3-7.91a7.65,7.65,0,0,1,1.61-.49,18.22,18.22,0,0,0-5.94-1.64h0A2.41,2.41,0,0,0,19.38,6.7a31.87,31.87,0,0,0-2.55,16.13c.2,1.77.79,3.06,1.47,3.23C18.78,26.18,19.39,25.74,20,24.81Z"/><path class="cls-2" d="M22.37,23.06a.22.22,0,0,0,.38.21C26.23,19.51,32.31,13,32.87,12.74a2.11,2.11,0,0,1,1.47.13C30.61,8.18,29.48,8,29,7.92l-.12,0a3.14,3.14,0,0,0-.51,0,2.33,2.33,0,0,0-2,1.26C26,9.68,23.93,17.2,22.37,23.06Z"/><path class="cls-2" d="M33,14.24l-.39.41c-.65.65-6.43,6.85-9.31,9.94a.22.22,0,0,0,.23.36c1.12-.37,2.55-.85,4.05-1.38,1-.38,2.24-.84,3.4-1.3,3.71-1.46,5.16-2,5.69-1.67.26.14.6.71.75.64S35.44,16.83,34,14.05c-.26-.35-.39-.38-.41-.38h0C33.48,13.67,33.19,14,33,14.24Z"/><path class="cls-2" d="M34.11,28.13h0c.31,0,.65.25,1,.75,0,0,.73-7.33.55-7.25s-.88.4-1.43.6c-2.78,1.07-10.84,3.66-13.46,4.5l.12.07a24.76,24.76,0,0,0,3.11.83l.36.06A93.69,93.69,0,0,0,34.11,28.13Z"/><path class="cls-2" d="M17.24,26.51a56.18,56.18,0,0,0,5.07,8.05.18.18,0,0,0,.22,0c.43-.16,1-.34,1.58-.54a26.4,26.4,0,0,0,3.43-1.29c-.28-.16-.74-.36-1.19-.56a105.88,105.88,0,0,1-8.94-5.84A.11.11,0,0,0,17.24,26.51Z"/><path class="cls-2" d="M20.78,34.56l-3.63-6.49a.21.21,0,0,0-.39.08c-.13,1.6-.11,4,.9,5.66.48.81,1.89,1,2.94,1.07A.21.21,0,0,0,20.78,34.56Z"/><path class="cls-1" d="M9.69,27.53C9.93,28.78,12.31,32,16,33a.26.26,0,0,0,.31-.33,9.72,9.72,0,0,1-.44-2.26.2.2,0,0,0-.17-.18A12.06,12.06,0,0,1,10,27.33C9.89,27.28,9.56,26.85,9.69,27.53Z"/><path class="cls-2" d="M12.8,12.6c.26.63.48,1.17.67,1.65.48,1.2.6,2,1.3,2.58a.44.44,0,0,0,.76-.23c.31-1.08.66-2.75.9-3.9.29-1.35.56-2.63.77-3.28l.09-.28A18.77,18.77,0,0,1,18.65,5.7a.22.22,0,0,0-.18-.34A16,16,0,0,0,8.64,8.77a.22.22,0,0,0,0,.36C9.59,9.74,11.91,10.48,12.8,12.6Z"/><path class="cls-2" d="M32.16,29.08a43.87,43.87,0,0,1-7.6-.66,34.86,34.86,0,0,1-3.9-.91c-.58-.19-.91-.39-.83-.28s.7.62.7.62c2.6,2.26,7.54,4.13,9,4.64a.24.24,0,0,0,.25-.07l2.59-3A.22.22,0,0,0,32.16,29.08Z"/></svg>